<svg width="18" height="18" viewBox="0 0 18 18" fill="none" xmlns="http://www.w3.org/2000/svg">
<path d="M0.615983 0.38161C0.850393 0.147271 1.16828 0.0156271 1.49973 0.0156271C1.83119 0.0156271 2.14907 0.147271 2.38348 0.38161L8.99973 6.99786L15.616 0.38161C15.7313 0.262222 15.8692 0.166995 16.0217 0.101483C16.1742 0.0359722 16.3383 0.00148947 16.5042 4.71959e-05C16.6702 -0.00139507 16.8348 0.0302321 16.9884 0.0930832C17.142 0.155934 17.2816 0.248751 17.399 0.366116C17.5163 0.483482 17.6092 0.623047 17.672 0.776668C17.7349 0.930288 17.7665 1.09489 17.765 1.26086C17.7636 1.42684 17.7291 1.59086 17.6636 1.74337C17.5981 1.89587 17.5029 2.0338 17.3835 2.14911L10.7672 8.76536L17.3835 15.3816C17.6112 15.6174 17.7372 15.9331 17.7343 16.2609C17.7315 16.5886 17.6 16.9021 17.3683 17.1339C17.1365 17.3656 16.823 17.4971 16.4952 17.5C16.1675 17.5028 15.8517 17.3768 15.616 17.1491L8.99973 10.5329L2.38348 17.1491C2.14773 17.3768 1.83198 17.5028 1.50423 17.5C1.17649 17.4971 0.86297 17.3656 0.63121 17.1339C0.39945 16.9021 0.267989 16.5886 0.265141 16.2609C0.262293 15.9331 0.388286 15.6174 0.615983 15.3816L7.23223 8.76536L0.615983 2.14911C0.381644 1.9147 0.25 1.59682 0.25 1.26536C0.25 0.933905 0.381644 0.61602 0.615983 0.38161Z" fill="#1F324A"/>
</svg>
