<svg width="21" height="15" viewBox="0 0 21 15" fill="none" xmlns="http://www.w3.org/2000/svg">
<path d="M0.5 3C0.5 2.40326 0.767954 1.83097 1.24492 1.40901C1.72188 0.987053 2.36878 0.75 3.0433 0.75H18.3031C18.9777 0.75 19.6246 0.987053 20.1015 1.40901C20.5785 1.83097 20.8464 2.40326 20.8464 3V8.625H0.5V3ZM15.124 4.125C14.9554 4.125 14.7936 4.18426 14.6744 4.28975C14.5552 4.39524 14.4882 4.53832 14.4882 4.6875V5.8125C14.4882 5.96168 14.5552 6.10476 14.6744 6.21025C14.7936 6.31574 14.9554 6.375 15.124 6.375H17.6673C17.8359 6.375 17.9977 6.31574 18.1169 6.21025C18.2361 6.10476 18.3031 5.96168 18.3031 5.8125V4.6875C18.3031 4.53832 18.2361 4.39524 18.1169 4.28975C17.9977 4.18426 17.8359 4.125 17.6673 4.125H15.124ZM0.5 10.875V12C0.5 12.5967 0.767954 13.169 1.24492 13.591C1.72188 14.0129 2.36878 14.25 3.0433 14.25H18.3031C18.9777 14.25 19.6246 14.0129 20.1015 13.591C20.5785 13.169 20.8464 12.5967 20.8464 12V10.875H0.5Z" fill="#003476"/>
</svg>
