<svg width="240" height="153" viewBox="0 0 240 153" fill="none" xmlns="http://www.w3.org/2000/svg">
<g clip-path="url(#clip0_388_6551)">
<path d="M0 17.9125C0 11.6426 0 8.50757 1.22022 6.11276C2.29355 4.00622 4.00622 2.29355 6.11276 1.22022C8.50757 0 11.6426 0 17.9125 0H222.087C228.357 0 231.492 0 233.887 1.22022C235.994 2.29355 237.706 4.00622 238.78 6.11276C240 8.50757 240 11.6426 240 17.9125V134.624C240 140.894 240 144.029 238.78 146.424C237.706 148.53 235.994 150.243 233.887 151.316C231.492 152.536 228.357 152.536 222.087 152.536H17.9125C11.6426 152.536 8.50757 152.536 6.11276 151.316C4.00622 150.243 2.29355 148.53 1.22022 146.424C0 144.029 0 140.894 0 134.624V17.9125Z" fill="#003476"/>
<circle cx="54.2274" cy="76.6181" r="97.6093" fill="white" fill-opacity="0.1"/>
<circle cx="47.2303" cy="54.9271" r="119.3" fill="white" fill-opacity="0.1"/>
</g>
<defs>
<clipPath id="clip0_388_6551">
<path d="M0 17.9125C0 11.6426 0 8.50757 1.22022 6.11276C2.29355 4.00622 4.00622 2.29355 6.11276 1.22022C8.50757 0 11.6426 0 17.9125 0H222.087C228.357 0 231.492 0 233.887 1.22022C235.994 2.29355 237.706 4.00622 238.78 6.11276C240 8.50757 240 11.6426 240 17.9125V134.624C240 140.894 240 144.029 238.78 146.424C237.706 148.53 235.994 150.243 233.887 151.316C231.492 152.536 228.357 152.536 222.087 152.536H17.9125C11.6426 152.536 8.50757 152.536 6.11276 151.316C4.00622 150.243 2.29355 148.53 1.22022 146.424C0 144.029 0 140.894 0 134.624V17.9125Z" fill="white"/>
</clipPath>
</defs>
</svg>