<svg width="347" height="222" viewBox="0 0 347 222" fill="none" xmlns="http://www.w3.org/2000/svg">
<g opacity="0.9" filter="url(#filter0_d)">
<g clip-path="url(#clip0)">
<rect width="182" height="307" transform="matrix(1.19249e-08 -1 -1 -1.19249e-08 327 200)" fill="url(#paint0_linear)"/>
<g filter="url(#filter1_d)">
<path d="M20.0001 199.494C20.0001 199.494 134.695 199.494 160.361 199.494C206.03 167.229 218.862 163.087 218.862 110.008C218.862 56.9278 275 18 275 18L20.0001 18L20.0001 199.494Z" fill="url(#paint1_linear)"/>
</g>
<g filter="url(#filter2_d)">
<path d="M211.395 199.494L20 199.494L20 18L85.3953 18C85.3953 18 163.895 54.9056 163.895 110.011C163.895 165.117 194.31 179.272 211.395 199.494Z" fill="url(#paint2_linear)"/>
</g>
</g>
<rect x="-0.15" y="-0.15" width="181.7" height="306.7" rx="15.85" transform="matrix(1.19249e-08 -1 -1 -1.19249e-08 326.7 199.7)" stroke="url(#paint3_linear)" stroke-width="0.3"/>
</g>
<defs>
<filter id="filter0_d" x="0" y="-3.8147e-06" width="347" height="222" filterUnits="userSpaceOnUse" color-interpolation-filters="sRGB">
<feFlood flood-opacity="0" result="BackgroundImageFix"/>
<feColorMatrix in="SourceAlpha" type="matrix" values="0 0 0 0 0 0 0 0 0 0 0 0 0 0 0 0 0 0 127 0" result="hardAlpha"/>
<feOffset dy="2"/>
<feGaussianBlur stdDeviation="10"/>
<feColorMatrix type="matrix" values="0 0 0 0 0 0 0 0 0 0.203922 0 0 0 0 0.462745 0 0 0 0.08 0"/>
<feBlend mode="normal" in2="BackgroundImageFix" result="effect1_dropShadow"/>
<feBlend mode="normal" in="SourceGraphic" in2="effect1_dropShadow" result="shape"/>
</filter>
<filter id="filter1_d" x="0.00012207" y="-12" width="295" height="221.494" filterUnits="userSpaceOnUse" color-interpolation-filters="sRGB">
<feFlood flood-opacity="0" result="BackgroundImageFix"/>
<feColorMatrix in="SourceAlpha" type="matrix" values="0 0 0 0 0 0 0 0 0 0 0 0 0 0 0 0 0 0 127 0" result="hardAlpha"/>
<feOffset dy="-10"/>
<feGaussianBlur stdDeviation="10"/>
<feColorMatrix type="matrix" values="0 0 0 0 0 0 0 0 0 0.203922 0 0 0 0 0.462745 0 0 0 0.05 0"/>
<feBlend mode="normal" in2="BackgroundImageFix" result="effect1_dropShadow"/>
<feBlend mode="normal" in="SourceGraphic" in2="effect1_dropShadow" result="shape"/>
</filter>
<filter id="filter2_d" x="0" y="-12" width="231.395" height="221.494" filterUnits="userSpaceOnUse" color-interpolation-filters="sRGB">
<feFlood flood-opacity="0" result="BackgroundImageFix"/>
<feColorMatrix in="SourceAlpha" type="matrix" values="0 0 0 0 0 0 0 0 0 0 0 0 0 0 0 0 0 0 127 0" result="hardAlpha"/>
<feOffset dy="-10"/>
<feGaussianBlur stdDeviation="10"/>
<feColorMatrix type="matrix" values="0 0 0 0 0 0 0 0 0 0.203922 0 0 0 0 0.462745 0 0 0 0.05 0"/>
<feBlend mode="normal" in2="BackgroundImageFix" result="effect1_dropShadow"/>
<feBlend mode="normal" in="SourceGraphic" in2="effect1_dropShadow" result="shape"/>
</filter>
<linearGradient id="paint0_linear" x1="0" y1="0" x2="242.823" y2="82.9533" gradientUnits="userSpaceOnUse">
<stop stop-color="#5DA0FA"/>
<stop offset="1" stop-color="#003476"/>
</linearGradient>
<linearGradient id="paint1_linear" x1="143.28" y1="231.85" x2="94.4207" y2="43.6887" gradientUnits="userSpaceOnUse">
<stop offset="0.0991788" stop-color="#5DA0FA"/>
<stop offset="1" stop-color="#003476"/>
</linearGradient>
<linearGradient id="paint2_linear" x1="211.395" y1="199.494" x2="97.6094" y2="-8.73664" gradientUnits="userSpaceOnUse">
<stop stop-color="#5DA0FA"/>
<stop offset="1" stop-color="#003476"/>
</linearGradient>
<linearGradient id="paint3_linear" x1="-16.5" y1="-7" x2="182" y2="313" gradientUnits="userSpaceOnUse">
<stop stop-color="#003476"/>
<stop offset="1" stop-color="#D8E9FF" stop-opacity="0.2"/>
</linearGradient>
<clipPath id="clip0">
<rect width="182" height="307" rx="16" transform="matrix(1.19249e-08 -1 -1 -1.19249e-08 327 200)" fill="white"/>
</clipPath>
</defs>
</svg>