<svg width="18" height="16" viewBox="0 0 18 16" fill="none" xmlns="http://www.w3.org/2000/svg">
<path opacity="0.5" d="M15.2533 0H13.6533V1.6C13.6533 1.92 13.3867 2.13333 13.12 2.13333C12.8533 2.13333 12.5867 1.92 12.5867 1.6V0H4.05333V1.6C4.05333 1.92 3.78667 2.13333 3.52 2.13333C3.25333 2.13333 2.98667 1.92 2.98667 1.6V0H1.38667C0.586667 0 0 0.693333 0 1.6V3.52H17.0667V1.6C17.0667 0.693333 16.1067 0 15.2533 0ZM0 4.64V14.4C0 15.36 0.586667 16 1.44 16H15.3067C16.16 16 17.12 15.3067 17.12 14.4V4.64H0ZM4.74667 13.6H3.46667C3.25333 13.6 3.04 13.44 3.04 13.1733V11.84C3.04 11.6267 3.2 11.4133 3.46667 11.4133H4.8C5.01333 11.4133 5.22667 11.5733 5.22667 11.84V13.1733C5.17333 13.44 5.01333 13.6 4.74667 13.6ZM4.74667 8.8H3.46667C3.25333 8.8 3.04 8.64 3.04 8.37333V7.04C3.04 6.82667 3.2 6.61333 3.46667 6.61333H4.8C5.01333 6.61333 5.22667 6.77333 5.22667 7.04V8.37333C5.17333 8.64 5.01333 8.8 4.74667 8.8ZM9.01333 13.6H7.68C7.46667 13.6 7.25333 13.44 7.25333 13.1733V11.84C7.25333 11.6267 7.41333 11.4133 7.68 11.4133H9.01333C9.22667 11.4133 9.44 11.5733 9.44 11.84V13.1733C9.44 13.44 9.28 13.6 9.01333 13.6ZM9.01333 8.8H7.68C7.46667 8.8 7.25333 8.64 7.25333 8.37333V7.04C7.25333 6.82667 7.41333 6.61333 7.68 6.61333H9.01333C9.22667 6.61333 9.44 6.77333 9.44 7.04V8.37333C9.44 8.64 9.28 8.8 9.01333 8.8ZM13.28 13.6H11.9467C11.7333 13.6 11.52 13.44 11.52 13.1733V11.84C11.52 11.6267 11.68 11.4133 11.9467 11.4133H13.28C13.4933 11.4133 13.7067 11.5733 13.7067 11.84V13.1733C13.7067 13.44 13.5467 13.6 13.28 13.6ZM13.28 8.8H11.9467C11.7333 8.8 11.52 8.64 11.52 8.37333V7.04C11.52 6.82667 11.68 6.61333 11.9467 6.61333H13.28C13.4933 6.61333 13.7067 6.77333 13.7067 7.04V8.37333C13.7067 8.64 13.5467 8.8 13.28 8.8Z" fill="#1F324A"/>
</svg>
