<svg width="16" height="13" viewBox="0 0 16 13" fill="none" xmlns="http://www.w3.org/2000/svg">
<path d="M7.51115 3.61312L2.57212 7.68098V12.0714C2.57212 12.1851 2.61727 12.2941 2.69766 12.3745C2.77804 12.4548 2.88706 12.5 3.00074 12.5L6.00268 12.4922C6.11598 12.4917 6.22445 12.4463 6.30437 12.3659C6.38429 12.2856 6.42916 12.1769 6.42915 12.0636V9.49967C6.42915 9.38599 6.47431 9.27697 6.55469 9.19659C6.63508 9.1162 6.7441 9.07105 6.85777 9.07105H8.57225C8.68593 9.07105 8.79495 9.1162 8.87533 9.19659C8.95571 9.27697 9.00087 9.38599 9.00087 9.49967V12.0617C9.00069 12.1181 9.01165 12.174 9.03311 12.2262C9.05457 12.2783 9.08612 12.3257 9.12594 12.3657C9.16575 12.4056 9.21306 12.4373 9.26515 12.4589C9.31724 12.4806 9.37309 12.4917 9.42949 12.4917L12.4304 12.5C12.544 12.5 12.6531 12.4548 12.7334 12.3745C12.8138 12.2941 12.859 12.1851 12.859 12.0714V7.67803L7.92102 3.61312C7.86297 3.56632 7.79065 3.5408 7.71608 3.5408C7.64152 3.5408 7.5692 3.56632 7.51115 3.61312ZM15.3128 6.37798L13.0733 4.53197V0.821464C13.0733 0.736207 13.0394 0.654441 12.9791 0.594155C12.9188 0.533869 12.8371 0.5 12.7518 0.5H11.2517C11.1664 0.5 11.0846 0.533869 11.0243 0.594155C10.9641 0.654441 10.9302 0.736207 10.9302 0.821464V2.76659L8.5318 0.793336C8.30164 0.603935 8.01282 0.500379 7.71474 0.500379C7.41667 0.500379 7.12785 0.603935 6.89769 0.793336L0.116664 6.37798C0.0841128 6.40488 0.0571815 6.43794 0.0374093 6.47525C0.0176371 6.51257 0.00541152 6.55342 0.00143109 6.59546C-0.00254933 6.6375 0.00179341 6.67992 0.0142112 6.72028C0.026629 6.76065 0.0468784 6.79817 0.0738025 6.83071L0.756914 7.66116C0.783765 7.69381 0.816792 7.72084 0.854103 7.74071C0.891415 7.76058 0.932279 7.77289 0.974356 7.77695C1.01643 7.781 1.0589 7.77672 1.09932 7.76434C1.13974 7.75197 1.17732 7.73174 1.20991 7.70482L7.51115 2.51478C7.5692 2.46799 7.64152 2.44247 7.71608 2.44247C7.79065 2.44247 7.86297 2.46799 7.92102 2.51478L14.2225 7.70482C14.2551 7.73175 14.2926 7.752 14.3329 7.76441C14.3733 7.77683 14.4157 7.78117 14.4578 7.77719C14.4998 7.77321 14.5407 7.76099 14.578 7.74122C14.6153 7.72144 14.6483 7.69451 14.6753 7.66196L15.3584 6.83151C15.3853 6.79879 15.4054 6.76107 15.4177 6.72053C15.43 6.67999 15.4341 6.63742 15.4299 6.59528C15.4256 6.55313 15.4131 6.51224 15.393 6.47495C15.3729 6.43765 15.3457 6.4047 15.3128 6.37798Z" fill="white"/>
</svg>
