<svg width="201" height="200" viewBox="0 0 201 200" fill="none" xmlns="http://www.w3.org/2000/svg">
<g clip-path="url(#clip0_401_4995)">
<path d="M191.093 135.014C170.886 182.014 117.55 202.2 75.7644 198.757C64.3572 197.814 41.4001 195.928 23.4715 179.057C-10.95 146.664 -5.64995 78.9428 27.3001 39.0785C31.5429 33.9428 60.9215 -0.450064 106.693 0.00707914C140.207 0.342793 163.729 19.1856 166.593 21.5285C170.207 24.4928 178.179 31.5356 185.357 42.7142C202.229 68.9785 203.714 105.643 191.093 135.014Z" fill="url(#paint0_linear_401_4995)"/>
<path d="M0.692877 149.436C20.0214 212.786 172.571 217.9 200.093 157.457C201.979 153.314 198.65 148.764 193.664 148.671L4.40716 145.179C1.90002 145.129 0.0285909 147.264 0.692877 149.436Z" fill="#D6E7FF"/>
<path d="M132.457 148.629C132.457 148.629 139.25 57.9785 175.893 3.54281C178.357 -0.114328 184.072 0.285672 185.965 4.26424C198.607 30.8642 228.1 112.9 132.457 148.629Z" fill="#D6E7FF"/>
<path opacity="0.5" d="M140.579 141.621C140.393 141.864 140.743 142.15 140.965 141.936C149.05 133.978 179.164 96.3499 181.414 30.0928C181.422 29.8785 181.093 29.8499 181.064 30.057C179.122 45.6285 170.164 103.328 140.579 141.621Z" fill="white"/>
<path d="M29.7428 56.9072C31.3928 53.4715 32.5714 49.8786 32.8428 45.9715C33.5357 36.1143 27.8071 27.0358 23.5928 18.5501C19.7285 10.7501 16.85 -0.871365 29.9071 0.164349C40.3071 0.985777 52.5357 11.3501 53.9285 22.1643C55.5785 34.9572 49.35 51.0858 56.7357 62.7072C67.0643 78.9643 74.5143 75.2358 74.5143 102.671C74.5143 114.393 68.0214 120.857 60.5857 124.421C48.85 130.043 34.85 127.771 25.5 118.721C17.2357 110.729 12.3285 99.2358 13.9857 87.6929C15.6643 76.0286 24.8071 67.1858 29.7428 56.9072Z" fill="#D6E7FF"/>
<path d="M38.4642 145.1C38.6285 145.1 38.7785 144.993 38.8142 144.821C45.2857 118.993 48.8071 95.5857 49.2857 75.2357C49.6642 58.9429 48.1071 44.5643 44.6499 32.5001C38.7428 11.9072 29.4785 5.28579 29.0928 5.01437C28.9285 4.90008 28.6999 4.94294 28.5857 5.10722C28.4714 5.27151 28.5142 5.50008 28.6785 5.61437C28.7714 5.67865 38.1571 12.4072 43.9857 32.8072C49.3714 51.6643 52.7214 86.3714 38.1214 144.65C38.0714 144.843 38.1928 145.043 38.3857 145.093C38.4071 145.1 38.4357 145.1 38.4642 145.1Z" fill="#90B7E2"/>
<path d="M19.3785 27.9929C19.8785 27.8571 20.4357 27.8143 21.0214 27.8786C24.2714 28.25 25.6142 31.6857 26.5642 34.3643C27.3857 36.6643 28.3499 39.45 27.8642 41.9357C27.3428 44.6286 24.4857 46.8214 22.4071 44.0929C20.05 40.9857 16.5143 36.2214 16.4928 32.1071C16.4857 30.0643 17.6357 28.4643 19.3785 27.9929Z" fill="#D6E7FF"/>
<path d="M1.17142 119.357C-0.257156 109.936 3.16427 99.1144 4.87856 89.1501C5.7857 83.8786 6.19999 78.6501 5.35713 73.3429C4.51427 68.0715 2.02856 62.3643 4.31427 57.1072C8.92142 46.5143 19.8714 51.3357 26.15 59.3072C33.4286 68.5643 35.4214 83.6858 38.1857 95.3287C39.85 102.35 42.3643 109.55 43.2428 116.7C44.7 128.55 42.0214 136.779 36.35 142.336C30.9143 147.664 22.6357 148.772 15.9786 145.064C9.97142 141.714 3.47856 134.564 1.17142 119.357Z" fill="#8ABBFA"/>
<path d="M26.2285 163.079C26.2071 163.079 26.1856 163.079 26.1713 163.071C25.9713 163.036 25.8428 162.85 25.8785 162.657C25.8999 162.514 28.2714 148.193 28.3356 128.421C28.3928 110.186 26.4356 83.4429 16.807 59.6286C16.7356 59.4429 16.8213 59.2358 17.007 59.1572C17.1928 59.0858 17.3999 59.1715 17.4785 59.3572C27.1571 83.2858 29.1214 110.136 29.0642 128.443C28.9999 148.271 26.6213 162.643 26.5999 162.786C26.5571 162.957 26.3999 163.079 26.2285 163.079Z" fill="#90B7E2"/>
<path d="M186.543 172.214H149.607V98.1571H188.007V170.75C188.007 171.557 187.35 172.214 186.543 172.214Z" fill="#90B7E2"/>
<g opacity="0.89">
<path opacity="0.67" d="M179.814 152.1H158.036C157.993 152.1 157.957 152.064 157.957 152.021V118.357C157.957 118.314 157.993 118.279 158.036 118.279H179.814C179.857 118.279 179.893 118.314 179.893 118.357V152.021C179.893 152.064 179.857 152.1 179.814 152.1Z" fill="white"/>
<g opacity="0.89">
<path opacity="0.89" d="M178.25 150.271H169.822C169.8 150.271 169.779 150.25 169.779 150.228V120.143C169.779 120.121 169.8 120.1 169.822 120.1H178.25C178.272 120.1 178.293 120.121 178.293 120.143V150.221C178.293 150.25 178.272 150.271 178.25 150.271Z" fill="#90B7E2"/>
<path opacity="0.89" d="M168.022 150.271H159.593C159.572 150.271 159.55 150.25 159.55 150.228V120.143C159.55 120.121 159.572 120.1 159.593 120.1H168.022C168.043 120.1 168.065 120.121 168.065 120.143V150.221C168.072 150.25 168.05 150.271 168.022 150.271Z" fill="#90B7E2"/>
</g>
</g>
<path d="M195.236 104.007H147.786L145.85 69.8499L185.079 69.1071L197.107 101.079C197.736 102.443 196.743 104.007 195.236 104.007Z" fill="url(#paint1_linear_401_4995)"/>
<path d="M185.236 70.6786L147.529 70.2572L147.764 66.4429L183.007 66.7143C184.372 66.8 185.407 67.9 185.329 69.1786L185.236 70.6786Z" fill="url(#paint2_linear_401_4995)"/>
<path d="M16.3857 171.957H53.1928V97.9001H14.7928V170.364C14.7928 171.243 15.5071 171.957 16.3857 171.957Z" fill="#90B7E2"/>
<g opacity="0.89">
<path opacity="0.67" d="M22.9857 151.843H44.7642C44.8071 151.843 44.8428 151.807 44.8428 151.764V118.1C44.8428 118.057 44.8071 118.021 44.7642 118.021H22.9857C22.9428 118.021 22.9071 118.057 22.9071 118.1V151.764C22.9071 151.807 22.9428 151.843 22.9857 151.843Z" fill="white"/>
<g opacity="0.89">
<path opacity="0.89" d="M24.5499 150.014H32.9785C32.9999 150.014 33.0214 149.993 33.0214 149.972V119.893C33.0214 119.872 32.9999 119.85 32.9785 119.85H24.5499C24.5285 119.85 24.5071 119.872 24.5071 119.893V149.972C24.5071 149.993 24.5285 150.014 24.5499 150.014Z" fill="#90B7E2"/>
<path opacity="0.89" d="M34.7785 150.014H43.207C43.2285 150.014 43.2499 149.993 43.2499 149.972V119.893C43.2499 119.872 43.2285 119.85 43.207 119.85H34.7785C34.7571 119.85 34.7356 119.872 34.7356 119.893V149.972C34.7285 149.993 34.7499 150.014 34.7785 150.014Z" fill="#90B7E2"/>
</g>
</g>
<path d="M7.56428 103.75H55.0143L56.95 69.593L17.7214 68.8501L5.69284 100.822C5.06427 102.186 6.05713 103.75 7.56428 103.75Z" fill="url(#paint3_linear_401_4995)"/>
<path d="M17.5643 70.4215L55.2715 70.0001L55.0358 66.1859L19.7929 66.4573C18.4286 66.543 17.3929 67.643 17.4715 68.9215L17.5643 70.4215Z" fill="url(#paint4_linear_401_4995)"/>
<path d="M47.8856 93.4214V169.207C47.8856 172.536 50.5856 175.229 53.907 175.229H152.65C153.714 175.229 154.578 174.364 154.578 173.3V93.4214H47.8856Z" fill="#8ABBFA"/>
<path d="M111.35 169.9H89.5785V127.679C89.5785 127.536 89.6928 127.421 89.8356 127.421H111.1C111.243 127.421 111.357 127.536 111.357 127.679V169.9H111.35Z" fill="#90B7E2"/>
<path d="M110.529 168.3H90.3928V129.279C90.3928 129.136 90.5071 129.021 90.65 129.021H110.271C110.414 129.021 110.529 129.136 110.529 129.279V168.3Z" fill="url(#paint5_linear_401_4995)"/>
<path d="M109.814 124.564H91.1142C90.2642 124.564 89.5785 123.879 89.5785 123.029V121.686C89.5785 120.879 90.2071 120.207 91.0071 120.15L109.707 118.85C110.593 118.786 111.35 119.493 111.35 120.386V123.029C111.35 123.879 110.664 124.564 109.814 124.564Z" fill="#D6E7FF"/>
<path d="M111.2 172.536H89.9786C89.0143 172.536 88.2357 171.757 88.2357 170.793V169.271C88.2357 168.357 88.9357 165.821 89.85 165.757L111.086 166.057C112.093 165.986 112.95 166.786 112.95 167.8V170.8C112.95 171.75 112.164 172.536 111.2 172.536Z" fill="#D6E7FF"/>
<path d="M111.257 175.85H90.0357C89.0714 175.85 88.2928 175.072 88.2928 174.107V172.586C88.2928 171.671 88.4928 169.971 89.4071 169.907L111.143 169.371C112.15 169.3 113.007 170.1 113.007 171.114V174.114C113.007 175.072 112.221 175.85 111.257 175.85Z" fill="#90B7E2"/>
<path d="M148.914 166H118.3C118.178 166 118.078 165.9 118.078 165.779V116.507C118.078 116.386 118.178 116.286 118.3 116.286H148.914C149.036 116.286 149.136 116.386 149.136 116.507V165.779C149.136 165.9 149.036 166 148.914 166Z" fill="white"/>
<path d="M147.143 164.164H120C119.886 164.164 119.793 164.071 119.793 163.957V118.579C119.793 118.464 119.886 118.371 120 118.371H147.143C147.257 118.371 147.35 118.464 147.35 118.579V163.957C147.357 164.071 147.257 164.164 147.143 164.164Z" fill="#90B7E2"/>
<path d="M133.793 117.743H132.214V166H133.793V117.743Z" fill="white"/>
<path d="M84.0357 166H53.4143C53.2929 166 53.1929 165.9 53.1929 165.779V116.507C53.1929 116.386 53.2929 116.286 53.4143 116.286H84.0286C84.15 116.286 84.25 116.386 84.25 116.507V165.779C84.2571 165.9 84.1571 166 84.0357 166Z" fill="white"/>
<path d="M82.2642 164.164H55.1213C55.007 164.164 54.9142 164.071 54.9142 163.957V118.579C54.9142 118.464 55.007 118.371 55.1213 118.371H82.2642C82.3785 118.371 82.4713 118.464 82.4713 118.579V163.957C82.4713 164.071 82.3785 164.164 82.2642 164.164Z" fill="#90B7E2"/>
<path d="M68.9143 117.743H67.3357V166H68.9143V117.743Z" fill="white"/>
<path d="M155.829 47.6644L154.921 46.9787V46.0216H153.664L101.236 6.40015L48.2286 46.0216V93.4216H154.921V52.5502L155.829 47.6644Z" fill="#8ABBFA"/>
<path d="M133.464 11.0073H124.636V25.3787H133.464V11.0073Z" fill="#90B7E2"/>
<path d="M136.371 13.3358H122.107V9.35722C122.107 9.11437 122.3 8.92151 122.543 8.92151H135.707C136.071 8.92151 136.371 9.22151 136.371 9.58579V13.3358Z" fill="url(#paint6_linear_401_4995)"/>
<path d="M44.6571 53.5714L101.279 10.15L155.021 51.8357C156.971 53.35 159.843 52.2928 160.336 49.8643L161.093 46.1786L101.279 0.62146L43.3857 44.8428C42.3499 45.6357 41.9714 47.0214 42.4714 48.2285L44.6571 53.5714Z" fill="url(#paint7_linear_401_4995)"/>
<g opacity="0.89">
<path opacity="0.89" d="M89.9285 86.3928H111.707C111.75 86.3928 111.786 86.3571 111.786 86.3143V52.65C111.786 52.6071 111.75 52.5714 111.707 52.5714H89.9285C89.8856 52.5714 89.8499 52.6071 89.8499 52.65V86.3143C89.8428 86.3571 89.8856 86.3928 89.9285 86.3928Z" fill="white"/>
<g opacity="0.89">
<path opacity="0.89" d="M91.4927 84.5642H99.9213C99.9427 84.5642 99.9641 84.5428 99.9641 84.5214V54.4428C99.9641 54.4214 99.9427 54.4 99.9213 54.4H91.4927C91.4713 54.4 91.4499 54.4214 91.4499 54.4428V84.5214C91.4427 84.55 91.4642 84.5642 91.4927 84.5642Z" fill="#90B7E2"/>
<path opacity="0.89" d="M101.714 84.5642H110.143C110.164 84.5642 110.186 84.5428 110.186 84.5214V54.4428C110.186 54.4214 110.164 54.4 110.143 54.4H101.714C101.693 54.4 101.671 54.4214 101.671 54.4428V84.5214C101.671 84.55 101.686 84.5642 101.714 84.5642Z" fill="#90B7E2"/>
</g>
</g>
<g opacity="0.89">
<path opacity="0.89" d="M59.1358 86.6358H80.9142C80.9571 86.6358 80.9928 86.6001 80.9928 86.5572V52.8857C80.9928 52.8428 80.9571 52.8071 80.9142 52.8071H59.1358C59.0929 52.8071 59.0572 52.8428 59.0572 52.8857V86.5501C59.05 86.6001 59.0858 86.6358 59.1358 86.6358Z" fill="white"/>
<g opacity="0.89">
<path opacity="0.89" d="M60.7 84.8072H69.1285C69.1499 84.8072 69.1714 84.7858 69.1714 84.7644V54.6786C69.1714 54.6572 69.1499 54.6357 69.1285 54.6357H60.7C60.6786 54.6357 60.6571 54.6572 60.6571 54.6786V84.7572C60.65 84.7858 60.6714 84.8072 60.7 84.8072Z" fill="#90B7E2"/>
<path opacity="0.89" d="M70.9214 84.8072H79.35C79.3715 84.8072 79.3929 84.7858 79.3929 84.7644V54.6786C79.3929 54.6572 79.3715 54.6357 79.35 54.6357H70.9214C70.9 54.6357 70.8785 54.6572 70.8785 54.6786V84.7572C70.8785 84.7858 70.8928 84.8072 70.9214 84.8072Z" fill="#90B7E2"/>
</g>
</g>
<g opacity="0.89">
<path opacity="0.89" d="M119.386 86.9429H141.164C141.207 86.9429 141.243 86.9072 141.243 86.8644V53.193C141.243 53.1501 141.207 53.1144 141.164 53.1144H119.386C119.343 53.1144 119.307 53.1501 119.307 53.193V86.8572C119.307 86.9072 119.343 86.9429 119.386 86.9429Z" fill="white"/>
<g opacity="0.89">
<path opacity="0.89" d="M120.95 85.1142H129.379C129.4 85.1142 129.421 85.0928 129.421 85.0714V54.9857C129.421 54.9643 129.4 54.9429 129.379 54.9429H120.95C120.929 54.9429 120.907 54.9643 120.907 54.9857V85.0642C120.907 85.0928 120.922 85.1142 120.95 85.1142Z" fill="#90B7E2"/>
<path opacity="0.89" d="M131.171 85.1142H139.6C139.621 85.1142 139.643 85.0928 139.643 85.0714V54.9857C139.643 54.9643 139.621 54.9429 139.6 54.9429H131.171C131.15 54.9429 131.129 54.9643 131.129 54.9857V85.0642C131.129 85.0928 131.15 85.1142 131.171 85.1142Z" fill="#90B7E2"/>
</g>
</g>
<path d="M157.05 98.5572H45.4143C45.1 98.5572 44.85 98.3071 44.85 97.9929V93.0143C44.85 92.7 45.1 92.45 45.4143 92.45H157.05C157.364 92.45 157.614 92.7 157.614 93.0143V97.9929C157.614 98.3 157.364 98.5572 157.05 98.5572Z" fill="#90B7E2"/>
<path d="M50.2714 198.25C50.2714 198.193 50.2714 198.136 50.2856 198.079C51.1571 194.636 54.7071 192.871 54.7071 192.871L56.4142 193.007C57.4 196.043 58.0285 197.521 57.8714 198.357C57.8642 198.379 57.8571 198.4 57.8571 198.421C56.4499 198.543 53.5428 198.629 50.2714 198.25Z" fill="url(#paint8_linear_401_4995)"/>
<path d="M57.8571 198.414C57.7785 198.693 57.5785 198.907 57.3142 198.964C55.3071 199.386 52.1214 199.05 50.7856 198.871C50.4928 198.836 50.2714 198.557 50.2714 198.25C53.5428 198.629 56.4499 198.543 57.8571 198.414Z" fill="#90B7E2"/>
<path d="M53.3 190.207L54.05 193.807C54.1072 194.071 54.3072 194.271 54.55 194.293C54.85 194.321 55.2786 194.336 55.7072 194.271C56.0929 194.214 56.3643 193.821 56.2929 193.4L55.7715 190.2H53.3V190.207Z" fill="url(#paint9_linear_401_4995)"/>
<path d="M72.3714 198.386C70.55 198.336 69.6 198.121 69.1143 197.921C69.1143 198.1 69.1143 198.286 69.1214 198.479C69.1285 198.686 69.2785 198.843 69.4643 198.843L79.4857 198.779C79.8072 198.779 79.9929 198.407 79.8571 198.114C78.5429 198.221 75.1928 198.464 72.3714 198.386Z" fill="#90B7E2"/>
<path d="M79.8571 198.114C79.8428 198.086 79.8357 198.064 79.8143 198.036C78.9285 196.8 76.6785 194.336 72.2214 193.271L70.0857 193.207C70.0857 193.207 69.1357 194.857 69.1143 197.921C69.6 198.121 70.5428 198.336 72.3714 198.386C75.1928 198.464 78.5428 198.221 79.8571 198.114Z" fill="url(#paint10_linear_401_4995)"/>
<path d="M69.6929 189.971C69.7143 190.129 70.0072 192.55 70.1215 193.493C70.15 193.714 70.3072 193.886 70.5143 193.914C70.8786 193.957 71.4643 194 71.9786 193.893C72.2572 193.836 72.4572 193.572 72.4572 193.257V189.457L69.6929 189.971Z" fill="url(#paint11_linear_401_4995)"/>
<path d="M54.7286 142.921C54.7286 142.921 51.3072 173.307 53.2072 192.3C53.2072 192.3 55.4858 192.3 56.6286 191.921C56.6286 191.921 60.1786 162.207 61.3286 153.707C61.3715 153.386 61.8286 153.371 61.8929 153.693C63.3143 160.843 68.8786 188.893 69.5429 191.543C69.5429 191.543 71.4429 192.3 72.9643 191.543C72.9643 191.543 69.9286 150.9 67.65 143.686L54.7286 142.921Z" fill="url(#paint12_linear_401_4995)"/>
<path d="M47.8928 107.593C47.8928 107.593 62.3285 105.314 73.7214 108.35L72.9642 120.129C72.9642 120.129 69.9285 136.464 67.65 143.679C67.65 143.679 58.9142 145.2 54.7357 142.921C54.7357 142.921 51.3143 122.407 49.4214 119.371C49.4071 119.371 47.5143 111.393 47.8928 107.593Z" fill="url(#paint13_linear_401_4995)"/>
<path d="M57.9214 97.2143L56.4857 106.936C56.4857 106.936 60.5 108.778 63.3143 106.857L62.7071 99.9928L57.9214 97.2143Z" fill="url(#paint14_linear_401_4995)"/>
<path d="M64.1071 90.8786C64.15 90.9643 65.0214 95.8643 65.55 98.9001C65.7714 100.157 64.85 101.321 63.5785 101.393L62.4143 101.464C60.2785 101.593 58.3928 100.071 58.0714 97.9501L57.2285 92.45C57.2285 92.4572 63.0071 88.8857 64.1071 90.8786Z" fill="url(#paint15_linear_401_4995)"/>
<path d="M55.9785 92.4643C55.5356 91.9071 55.1428 91.0143 56.0928 90.0714C57.0571 89.1143 58.1499 89.3571 58.8356 89.6714C59.1428 89.8143 59.5214 89.75 59.7356 89.4929C59.8356 89.3786 59.9785 89.3 60.1928 89.3214C60.5928 89.3643 60.9571 89.1 60.9999 88.7C61.0785 88.0071 61.4499 87.2 62.6714 86.9643C64.9071 86.5286 66.0214 88.7714 65.9857 90.3429C65.9428 91.9143 63.4928 92.25 62.1071 91.9857C61.0857 91.7929 60.1999 92.6928 59.8071 93.1786C59.6642 93.3571 59.6071 93.5928 59.6642 93.8143L60.0142 95.3357C59.7714 95.8071 59.5285 96.2928 59.1856 96.6928C58.9356 96.9857 58.6642 97.1428 58.3785 97.2143C57.9642 96.4357 56.7928 96.3071 56.2571 96.2857C56.0499 96.2785 55.8571 96.1857 55.7213 96.0285C55.3142 95.5571 54.6713 94.5143 55.8999 93.4857C56.1928 93.2357 56.2214 92.7786 55.9785 92.4643Z" fill="url(#paint16_linear_401_4995)"/>
<path d="M58.7713 98.8429C58.7713 98.8429 58.7213 96.1 57.6142 95.8429C56.507 95.5858 55.307 96.3858 56.257 98.0286C57.4356 100.071 58.7713 98.8429 58.7713 98.8429Z" fill="url(#paint17_linear_401_4995)"/>
<path d="M47.8929 107.593C47.8929 107.593 25.4786 131.9 51.8786 141.207V139.307C51.8786 139.307 42 130.95 49.6 119.557C49.6 119.557 48.65 108.736 47.8929 107.593Z" fill="url(#paint18_linear_401_4995)"/>
<path d="M52.0715 139.5C52.0715 139.5 55.4929 137.222 57.0072 137.979C58.5287 138.736 58.5287 139.879 58.5287 139.879C58.5287 139.879 57.7715 141.4 56.6287 141.021C55.4858 140.643 52.8286 141.4 51.6929 141.021C51.6929 141.021 51.3072 139.5 52.0715 139.5Z" fill="url(#paint19_linear_401_4995)"/>
<path d="M91.2001 116.179C83.9643 117.264 79.9 112.321 76.3857 109.557C71.7429 105.9 67.4857 108.057 67.4857 108.057L72.05 118.714C79.4357 125.679 87.4001 122.921 92.1715 120.664C92.2429 118.836 91.7572 117.307 91.2001 116.179Z" fill="url(#paint20_linear_401_4995)"/>
<path d="M101.364 111.864L98.9642 113.157C96.0857 114.907 93.5143 115.836 91.1929 116.186C91.75 117.314 92.2429 118.843 92.1643 120.664C95.2071 119.229 97.1142 117.5 97.1142 117.5C102.55 114.257 101.364 111.864 101.364 111.864Z" fill="url(#paint21_linear_401_4995)"/>
<path d="M108.436 115.243C108.279 114.729 107.9 114.314 107.4 114.107L102.529 112.15C102.529 112.15 102.457 111.529 103.557 111.1C104.657 110.679 104.4 109.443 104.4 109.443C104.4 109.443 102.893 110.129 100.686 111.221C99.4215 111.843 98.7143 112.943 98.3429 113.771L99.6 115.422C102.6 116.322 105.636 116.493 108.7 116.136L108.436 115.243Z" fill="url(#paint22_linear_401_4995)"/>
</g>
<defs>
<linearGradient id="paint0_linear_401_4995" x1="211.295" y1="225.307" x2="64.6325" y2="67.0043" gradientUnits="userSpaceOnUse">
<stop stop-color="#DAE3FE"/>
<stop offset="1" stop-color="#E9EFFD"/>
</linearGradient>
<linearGradient id="paint1_linear_401_4995" x1="229.437" y1="-46.6373" x2="203.494" y2="12.878" gradientUnits="userSpaceOnUse">
<stop stop-color="#3E90FF"/>
<stop offset="1" stop-color="#332CE2"/>
</linearGradient>
<linearGradient id="paint2_linear_401_4995" x1="166.863" y1="66.4973" x2="178.788" y2="-1.43837" gradientUnits="userSpaceOnUse">
<stop stop-color="#3E90FF"/>
<stop offset="1" stop-color="#332CE2"/>
</linearGradient>
<linearGradient id="paint3_linear_401_4995" x1="99.1025" y1="-35.3636" x2="48.7434" y2="62.3026" gradientUnits="userSpaceOnUse">
<stop stop-color="#3E90FF"/>
<stop offset="1" stop-color="#332CE2"/>
</linearGradient>
<linearGradient id="paint4_linear_401_4995" x1="40.745" y1="44.3599" x2="52.6696" y2="-23.575" gradientUnits="userSpaceOnUse">
<stop stop-color="#3E90FF"/>
<stop offset="1" stop-color="#332CE2"/>
</linearGradient>
<linearGradient id="paint5_linear_401_4995" x1="90.3963" y1="148.664" x2="110.528" y2="148.664" gradientUnits="userSpaceOnUse">
<stop stop-color="#3E90FF"/>
<stop offset="1" stop-color="#332CE2"/>
</linearGradient>
<linearGradient id="paint6_linear_401_4995" x1="161.084" y1="-78.731" x2="145.497" y2="-34.6562" gradientUnits="userSpaceOnUse">
<stop stop-color="#3E90FF"/>
<stop offset="1" stop-color="#332CE2"/>
</linearGradient>
<linearGradient id="paint7_linear_401_4995" x1="115.727" y1="-72.9207" x2="106.571" y2="4.90699" gradientUnits="userSpaceOnUse">
<stop stop-color="#3E90FF"/>
<stop offset="1" stop-color="#332CE2"/>
</linearGradient>
<linearGradient id="paint8_linear_401_4995" x1="58.1761" y1="277.012" x2="55.3082" y2="221.739" gradientUnits="userSpaceOnUse">
<stop stop-color="#09005D"/>
<stop offset="1" stop-color="#1F4780"/>
</linearGradient>
<linearGradient id="paint9_linear_401_4995" x1="55.3948" y1="186.744" x2="53.8716" y2="200.037" gradientUnits="userSpaceOnUse">
<stop stop-color="#FEBBBA"/>
<stop offset="1" stop-color="#FF928E"/>
</linearGradient>
<linearGradient id="paint10_linear_401_4995" x1="73.2327" y1="222.031" x2="76.1005" y2="166.759" gradientUnits="userSpaceOnUse">
<stop stop-color="#09005D"/>
<stop offset="1" stop-color="#1F4780"/>
</linearGradient>
<linearGradient id="paint11_linear_401_4995" x1="71.4401" y1="188.444" x2="70.0153" y2="200.879" gradientUnits="userSpaceOnUse">
<stop stop-color="#FEBBBA"/>
<stop offset="1" stop-color="#FF928E"/>
</linearGradient>
<linearGradient id="paint12_linear_401_4995" x1="86.8344" y1="99.9414" x2="54.7623" y2="193.811" gradientUnits="userSpaceOnUse">
<stop stop-color="#E1473D"/>
<stop offset="1" stop-color="#E9605A"/>
</linearGradient>
<linearGradient id="paint13_linear_401_4995" x1="65.9837" y1="121.622" x2="29.3525" y2="139.518" gradientUnits="userSpaceOnUse">
<stop stop-color="#09005D"/>
<stop offset="1" stop-color="#1F4780"/>
</linearGradient>
<linearGradient id="paint14_linear_401_4995" x1="56.4803" y1="102.475" x2="63.3106" y2="102.475" gradientUnits="userSpaceOnUse">
<stop stop-color="#FEBBBA"/>
<stop offset="1" stop-color="#FF928E"/>
</linearGradient>
<linearGradient id="paint15_linear_401_4995" x1="629.266" y1="-424.894" x2="638.338" y2="-433.221" gradientUnits="userSpaceOnUse">
<stop stop-color="#FEBBBA"/>
<stop offset="1" stop-color="#FF928E"/>
</linearGradient>
<linearGradient id="paint16_linear_401_4995" x1="54.9878" y1="94.8511" x2="65.7804" y2="88.9008" gradientUnits="userSpaceOnUse">
<stop stop-color="#09005D"/>
<stop offset="1" stop-color="#1F4780"/>
</linearGradient>
<linearGradient id="paint17_linear_401_4995" x1="628.065" y1="-426.211" x2="637.138" y2="-434.539" gradientUnits="userSpaceOnUse">
<stop stop-color="#FEBBBA"/>
<stop offset="1" stop-color="#FF928E"/>
</linearGradient>
<linearGradient id="paint18_linear_401_4995" x1="63.9781" y1="117.516" x2="27.347" y2="135.413" gradientUnits="userSpaceOnUse">
<stop stop-color="#09005D"/>
<stop offset="1" stop-color="#1F4780"/>
</linearGradient>
<linearGradient id="paint19_linear_401_4995" x1="58.1428" y1="137.329" x2="45.988" y2="147.712" gradientUnits="userSpaceOnUse">
<stop stop-color="#FEBBBA"/>
<stop offset="1" stop-color="#FF928E"/>
</linearGradient>
<linearGradient id="paint20_linear_401_4995" x1="65.7852" y1="121.215" x2="29.1539" y2="139.111" gradientUnits="userSpaceOnUse">
<stop stop-color="#09005D"/>
<stop offset="1" stop-color="#1F4780"/>
</linearGradient>
<linearGradient id="paint21_linear_401_4995" x1="85.1174" y1="120.252" x2="111.136" y2="111.339" gradientUnits="userSpaceOnUse">
<stop stop-color="#FEBBBA"/>
<stop offset="1" stop-color="#FF928E"/>
</linearGradient>
<linearGradient id="paint22_linear_401_4995" x1="85.0819" y1="120.149" x2="111.101" y2="111.235" gradientUnits="userSpaceOnUse">
<stop stop-color="#FEBBBA"/>
<stop offset="1" stop-color="#FF928E"/>
</linearGradient>
<clipPath id="clip0_401_4995">
<rect width="200.629" height="200" fill="white"/>
</clipPath>
</defs>
</svg>
