<svg width="41" height="32" viewBox="0 0 41 32" fill="none" xmlns="http://www.w3.org/2000/svg">
<path d="M7.59007 31.841V29.7714C7.59007 28.9778 7.10703 28.4605 6.27907 28.4605C5.86517 28.4605 5.4167 28.5985 5.1062 29.047C4.86483 28.6675 4.51992 28.4605 4.00246 28.4605C3.65739 28.4605 3.31263 28.5639 3.03654 28.9434V28.5295H2.31213V31.841H3.03654V30.0127C3.03654 29.4264 3.34704 29.1503 3.83008 29.1503C4.31281 29.1503 4.55449 29.4609 4.55449 30.0127V31.841H5.27889V30.0127C5.27889 29.4264 5.62365 29.1503 6.07212 29.1503C6.55516 29.1503 6.79652 29.4609 6.79652 30.0127V31.841H7.59007V31.841ZM18.318 28.5295H17.1453V27.5292H16.4209V28.5295H15.7655V29.1848H16.4207V30.7027C16.4207 31.4617 16.7312 31.91 17.5592 31.91C17.8697 31.91 18.2144 31.8066 18.4561 31.6686L18.249 31.0476C18.0421 31.1856 17.8007 31.2202 17.6282 31.2202C17.2832 31.2202 17.1453 31.0132 17.1453 30.6681V29.1848H18.318V28.5295V28.5295ZM24.4583 28.4604C24.0444 28.4604 23.7685 28.6675 23.5959 28.9434V28.5295H22.8715V31.841H23.5959V29.9783C23.5959 29.4264 23.8373 29.1159 24.2858 29.1159C24.4237 29.1159 24.5963 29.1505 24.7342 29.1849L24.9412 28.4951C24.8032 28.4605 24.5963 28.4605 24.4583 28.4605V28.4604ZM15.179 28.8054C14.8339 28.5639 14.3511 28.4605 13.8336 28.4605C13.0058 28.4605 12.4539 28.8744 12.4539 29.5298C12.4539 30.0819 12.8678 30.3922 13.5922 30.4958L13.9372 30.5303C14.3167 30.5992 14.5236 30.7027 14.5236 30.8752C14.5236 31.1166 14.2477 31.2891 13.7646 31.2891C13.2817 31.2891 12.9023 31.1166 12.6607 30.9442L12.3158 31.4961C12.6953 31.772 13.2128 31.91 13.7301 31.91C14.696 31.91 15.248 31.4617 15.248 30.8407C15.248 30.2542 14.7995 29.9437 14.1095 29.8403L13.7646 29.8058C13.4541 29.7712 13.2128 29.7024 13.2128 29.4954C13.2128 29.2539 13.4541 29.1159 13.8336 29.1159C14.2477 29.1159 14.6616 29.2883 14.8685 29.3919L15.179 28.8054V28.8054ZM34.4276 28.4605C34.0135 28.4605 33.7376 28.6675 33.5651 28.9434V28.5295H32.8406V31.841H33.5651V29.9783C33.5651 29.4264 33.8066 29.1159 34.2549 29.1159C34.393 29.1159 34.5655 29.1505 34.7035 29.1849L34.9105 28.4951C34.7725 28.4605 34.5655 28.4605 34.4276 28.4605V28.4605ZM25.1827 30.1853C25.1827 31.1856 25.8725 31.91 26.942 31.91C27.4249 31.91 27.7698 31.8066 28.1147 31.5307L27.7698 30.9442C27.4939 31.1512 27.218 31.2546 26.9075 31.2546C26.321 31.2546 25.9071 30.8407 25.9071 30.1853C25.9071 29.5644 26.321 29.1503 26.9075 29.1159C27.218 29.1159 27.4939 29.2193 27.7698 29.4264L28.1147 28.84C27.7698 28.5639 27.4249 28.4605 26.942 28.4605C25.8725 28.4605 25.1827 29.1849 25.1827 30.1853ZM31.8749 30.1853V28.5295H31.1505V28.9434C30.909 28.6331 30.564 28.4605 30.1156 28.4605C29.1842 28.4605 28.4598 29.1849 28.4598 30.1853C28.4598 31.1856 29.1842 31.91 30.1156 31.91C30.5985 31.91 30.9435 31.7376 31.1505 31.4271V31.841H31.8749V30.1853V30.1853ZM29.2186 30.1853C29.2186 29.5988 29.5981 29.1159 30.219 29.1159C30.8054 29.1159 31.2195 29.5644 31.2195 30.1853C31.2195 30.7717 30.8054 31.2546 30.219 31.2546C29.5981 31.22 29.2186 30.7717 29.2186 30.1853V30.1853ZM20.5604 28.4605C19.5944 28.4605 18.9044 29.1503 18.9044 30.1853C18.9044 31.2202 19.5943 31.91 20.5948 31.91C21.0777 31.91 21.5607 31.772 21.9402 31.4617L21.5951 30.9442C21.3192 31.1512 20.9743 31.2891 20.6293 31.2891C20.1809 31.2891 19.7324 31.0822 19.6288 30.4956H22.0781V30.2198C22.1127 29.1503 21.4917 28.4605 20.5602 28.4605H20.5604ZM20.5604 29.0814C21.0087 29.0814 21.3193 29.3575 21.3882 29.8749H19.6634C19.7324 29.4264 20.0429 29.0814 20.5604 29.0814ZM38.5325 30.1853V27.2187H37.8081V28.9434C37.5666 28.6331 37.2216 28.4605 36.7732 28.4605C35.8418 28.4605 35.1174 29.1849 35.1174 30.1853C35.1174 31.1856 35.8418 31.91 36.7732 31.91C37.2562 31.91 37.6011 31.7376 37.8081 31.4271V31.841H38.5325V30.1853V30.1853ZM35.8764 30.1853C35.8764 29.5988 36.2557 29.1159 36.8767 29.1159C37.4632 29.1159 37.8771 29.5644 37.8771 30.1853C37.8771 30.7717 37.4632 31.2546 36.8767 31.2546C36.2557 31.22 35.8764 30.7717 35.8764 30.1853V30.1853ZM11.6604 30.1853V28.5295H10.936V28.9434C10.6945 28.6331 10.3496 28.4605 9.90109 28.4605C8.96973 28.4605 8.24533 29.1849 8.24533 30.1853C8.24533 31.1856 8.96973 31.91 9.90109 31.91C10.3841 31.91 10.729 31.7376 10.936 31.4271V31.841H11.6604V30.1853V30.1853ZM8.96973 30.1853C8.96973 29.5988 9.34922 29.1159 9.97007 29.1159C10.5565 29.1159 10.9706 29.5644 10.9706 30.1853C10.9706 30.7717 10.5565 31.2546 9.97007 31.2546C9.34922 31.22 8.96973 30.7717 8.96973 30.1853V30.1853Z" fill="white"/>
<path d="M14.9374 3.3829H25.8034V22.9074H14.9374V3.3829Z" fill="#FF5F00"/>
<path d="M15.6275 13.1448C15.6275 9.17786 17.4902 5.65924 20.3532 3.38247C18.2491 1.72672 15.593 0.726379 12.6954 0.726379C5.83057 0.726379 0.276855 6.28009 0.276855 13.1448C0.276855 20.0093 5.83057 25.5632 12.6953 25.5632C15.5929 25.5632 18.249 24.5629 20.3532 22.907C17.4902 20.6648 15.6275 17.1117 15.6275 13.1448V13.1448Z" fill="#EB001B"/>
<path d="M40.4642 13.1449C40.4642 20.0094 34.9105 25.5633 28.0458 25.5633C25.1481 25.5633 22.492 24.5629 20.3878 22.907C23.2854 20.6304 25.1137 17.1118 25.1137 13.1449C25.1137 9.17792 23.2509 5.6593 20.3878 3.38254C22.4919 1.72678 25.1481 0.72644 28.0458 0.72644C34.9105 0.72644 40.4643 6.31472 40.4643 13.1449H40.4642Z" fill="#F79E1B"/>
</svg>
