<svg width="12" height="13" viewBox="0 0 12 13" fill="none" xmlns="http://www.w3.org/2000/svg">
<path d="M6 0.5C2.67273 0.5 0 3.17273 0 6.5C0 9.82727 2.67273 12.5 6 12.5C9.32727 12.5 12 9.82727 12 6.5C12 3.17273 9.32727 0.5 6 0.5ZM6.43636 8.3H5.34545V9.44545C5.29091 9.60909 5.12727 9.77273 4.90909 9.77273H4.2C3.98182 9.77273 3.81818 9.60909 3.81818 9.39091V4.15455C3.81818 3.93636 3.98182 3.77273 4.2 3.77273H6.43636C7.63636 3.77273 8.67273 4.75455 8.67273 6.00909C8.61818 7.26364 7.63636 8.3 6.43636 8.3Z" fill="white"/>
</svg>
