<svg width="60" height="60" viewBox="0 0 60 60" fill="none" xmlns="http://www.w3.org/2000/svg">
<path d="M30 60C46.5685 60 60 46.5685 60 30C60 13.4315 46.5685 0 30 0C13.4315 0 0 13.4315 0 30C0 46.5685 13.4315 60 30 60Z" fill="#0CC39C"/>
<path opacity="0.15" d="M59.9999 30C59.9999 46.5 46.4999 60 29.9999 60C20.4374 60 11.9999 55.6875 6.56238 48.75C11.6249 52.875 18.1874 55.3126 25.3123 55.3126C41.8123 55.3126 55.3123 41.8126 55.3123 25.3126C55.3123 18.1876 52.8748 11.6251 48.7498 6.56262C55.6874 11.9999 59.9999 20.4374 59.9999 30Z" fill="black"/>
<path d="M46.3125 21.3749L26.8125 42.7499C25.5 44.25 23.25 44.25 21.9375 42.7499L13.6875 33.5624C12.5625 32.2499 12.5625 30.1874 13.875 28.8749C15.1875 27.7499 17.2499 27.7499 18.5625 29.0624L24.375 35.6249L41.4374 17.0624C42.75 15.7498 44.8124 15.5624 46.125 16.8749C47.4374 17.9999 47.4374 20.2499 46.3125 21.3749Z" fill="white"/>
</svg>
