<svg width="12" height="12" viewBox="0 0 12 12" fill="none" xmlns="http://www.w3.org/2000/svg">
<path d="M5.41077 10.4504H10.7687" stroke="url(#paint0_linear_424_5240)" stroke-width="1.2" stroke-linecap="round" stroke-linejoin="round"/>
<path d="M8.08961 0.861094C8.32645 0.629889 8.64767 0.5 8.9826 0.5C9.14845 0.5 9.31267 0.531889 9.46589 0.593845C9.6191 0.655802 9.75832 0.746613 9.87559 0.861094C9.99286 0.975575 10.0859 1.11148 10.1493 1.26106C10.2128 1.41064 10.2455 1.57095 10.2455 1.73285C10.2455 1.89475 10.2128 2.05507 10.1493 2.20465C10.0859 2.35422 9.99286 2.49013 9.87559 2.60461L2.43402 9.86927C2.43402 9.86927 0.324412 10.7094 0.0527133 10.4504C-0.218985 10.1915 0.648039 8.12575 0.648039 8.12575L8.08961 0.861094Z" fill="url(#paint1_linear_424_5240)"/>
<defs>
<linearGradient id="paint0_linear_424_5240" x1="8.08973" y1="10.4504" x2="8.08973" y2="11.4504" gradientUnits="userSpaceOnUse">
<stop stop-color="#4989DE"/>
<stop offset="1" stop-color="#3D86E7"/>
</linearGradient>
<linearGradient id="paint1_linear_424_5240" x1="5.12274" y1="0.5" x2="5.12274" y2="10.5" gradientUnits="userSpaceOnUse">
<stop stop-color="#4989DE"/>
<stop offset="1" stop-color="#3D86E7"/>
</linearGradient>
</defs>
</svg>
