<svg width="11" height="13" viewBox="0 0 11 13" fill="none" xmlns="http://www.w3.org/2000/svg">
<path d="M10.5165 12.4098C10.3326 12.5239 10.1064 12.4298 9.93333 12.3L9 11.6C8.28889 11.0667 7.31111 11.0667 6.6 11.6C5.88889 12.1333 4.91111 12.1333 4.2 11.6C3.48889 11.0667 2.51111 11.0667 1.8 11.6L0.866667 12.3C0.693571 12.4298 0.467376 12.5239 0.283544 12.4098C0.244755 12.3857 0.208542 12.3571 0.175736 12.3243C0.0632141 12.2117 0 12.0591 0 11.9V1.1C0 0.94087 0.0632141 0.788258 0.175736 0.675736C0.288258 0.563214 0.44087 0.5 0.6 0.5H10.2C10.3591 0.5 10.5117 0.563214 10.6243 0.675736C10.7368 0.788258 10.8 0.94087 10.8 1.1V11.9C10.8 12.0591 10.7368 12.2117 10.6243 12.3243C10.5915 12.3571 10.5552 12.3857 10.5165 12.4098ZM3.6 4.7C3.26863 4.7 3 4.96863 3 5.3C3 5.63137 3.26863 5.9 3.6 5.9H7.2C7.53137 5.9 7.8 5.63137 7.8 5.3C7.8 4.96863 7.53137 4.7 7.2 4.7H3.6ZM3.6 7.1C3.26863 7.1 3 7.36863 3 7.7C3 8.03137 3.26863 8.3 3.6 8.3H7.2C7.53137 8.3 7.8 8.03137 7.8 7.7C7.8 7.36863 7.53137 7.1 7.2 7.1H3.6Z" fill="white"/>
</svg>
